{"title":"Battle Los Angeles [2011] S.CaM XviD D3MT","uid":6239422,"size":1059948476,"categoryP":"video","categoryS":"movies","magnet":"?xt=urn:btih:98f5754c1b764863c6c0f02da1d5474900226c30&amp;dn=Battle+Los+Angeles+%5B2011%5D+S.CaM+XviD+D3MT&amp;tr=udp%3A%2F%2Ftracker.openbittorrent.com%3A80&amp;tr=udp%3A%2F%2Fopen.demonii.com%3A1337&amp;tr=udp%3A%2F%2Ftracker.coppersurfer.tk%3A6969&amp;tr=udp%3A%2F%2Fexodus.desync.com%3A6969","seeders":0,"leechers":0,"uploader":"hshahaz","files":2,"time":1300010272,"description":"\n\n[code]Format                           : AVI\nFormat/Info                      : Audio Video Interleave\nFile size                        : 975 MiB\nDuration                         : 1h 50mn\nOverall bit rate                 : 1 236 Kbps\nWriting application              : Lavf52.39.1\n\nVideo\nID                               : 0\nFormat                           : xvid\nCodec ID                         : xvid\nDuration                         : 1h 50mn\nBit rate                         : 1 159 Kbps\nWidth                            : 624 pixels\nHeight                           : 272 pixels\nDisplay aspect ratio             : 2.25:1\nFrame rate                       : 25.000 fps\nBits/(Pixel*Frame)               : 0.273\nStream size                      : 915 MiB (94%)\n\nAudio\nID                               : 1\nFormat                           : MPEG Audio\nFormat version                   : Version 1\nFormat profile                   : Layer 3\nMode                             : Joint stereo\nMode extension                   : MS Stereo\nCodec ID                         : 55\nCodec ID/Hint                    : MP3\nDuration                         : 1h 50mn\nBit rate mode                    : Constant\nBit rate                         : 64.0 Kbps\nChannel(s)                       : 2 channels\nSampling rate                    : 44.1 KHz\nCompression mode                 : Lossy\nStream size                      : 50.5 MiB (5%)\nAlignment                        : Aligned on interleaves\nInterleave, duration             : 26 ms (0.65 video frame)\nWriting library                  : LAME3.96.1[/code]\n\n","torrent":{"xt":"urn:btih:98f5754c1b764863c6c0f02da1d5474900226c30","amp;dn":"Battle+Los+Angeles+%5B2011%5D+S.CaM+XviD+D3MT","amp;tr":["udp%3A%2F%2Ftracker.openbittorrent.com%3A80","udp%3A%2F%2Fopen.demonii.com%3A1337","udp%3A%2F%2Ftracker.coppersurfer.tk%3A6969","udp%3A%2F%2Fexodus.desync.com%3A6969"],"infoHash":"98f5754c1b764863c6c0f02da1d5474900226c30","infoHashBuffer":{"type":"Buffer","data":[152,245,117,76,27,118,72,99,198,192,240,45,161,213,71,73,0,34,108,48]},"announce":[],"urlList":[]}}